<?xml version="1.0" encoding="UTF-8" standalone="no"?>
<!-- Created with Inkscape (http://www.inkscape.org/) -->

<svg
   width="1920"
   height="1080"
   viewBox="0 0 1920 1080"
   version="1.1"
   id="svg1"
   inkscape:version="1.3.2 (091e20ef0f, 2023-11-25, custom)"
   sodipodi:docname="clouds.svg"
   xmlns:inkscape="http://www.inkscape.org/namespaces/inkscape"
   xmlns:sodipodi="http://sodipodi.sourceforge.net/DTD/sodipodi-0.dtd"
   xmlns="http://www.w3.org/2000/svg"
   xmlns:svg="http://www.w3.org/2000/svg">
  <sodipodi:namedview
     id="namedview1"
     pagecolor="#a7a7a7"
     bordercolor="#000000"
     borderopacity="0.25"
     inkscape:showpageshadow="2"
     inkscape:pageopacity="0.0"
     inkscape:pagecheckerboard="0"
     inkscape:deskcolor="#d1d1d1"
     inkscape:document-units="px"
     inkscape:zoom="0.73546471"
     inkscape:cx="913.70802"
     inkscape:cy="426.94095"
     inkscape:window-width="2560"
     inkscape:window-height="1420"
     inkscape:window-x="0"
     inkscape:window-y="20"
     inkscape:window-maximized="1"
     inkscape:current-layer="layer1" />
  <defs
     id="defs1" />
  <g
     inkscape:label="Layer 1"
     inkscape:groupmode="layer"
     id="layer1">
    <path
       id="path1"
       style="fill:#ffffff;fill-opacity:0.69882673"
       d="m 398.82998,87.954609 a 36.119947,64.120267 54.445786 0 0 -30.08593,6.662108 29.832885,45.247877 79.452393 0 0 -22.87305,0.0059 29.832885,45.247877 79.452393 0 0 -26.94922,11.574217 36.450085,57.281609 80.366178 0 0 -49.17383,-7.749994 36.450085,57.281609 80.366178 0 0 -45.70312,26.124994 40.822563,47.702736 67.767446 0 0 -15.72461,3.76562 40.822563,47.702736 67.767446 0 0 -28.71094,55.83791 40.822563,47.702736 67.767446 0 0 59.60352,19.73827 40.822563,47.702736 67.767446 0 0 3.54492,-1.60742 36.450085,57.281609 80.366178 0 0 39.87305,3.01172 36.450085,57.281609 80.366178 0 0 38.89453,-18.08204 29.832885,45.247877 79.452393 0 0 23.75586,0.2168 29.832885,45.247877 79.452393 0 0 28.66211,-12.91015 36.119947,64.120267 54.445786 0 0 1.44726,-0.65039 36.119947,64.120267 54.445786 0 0 50.0332,-66.26953 l -30.13867,14.97461 a 29.832885,45.247877 79.452393 0 0 0.004,-0.0254 L 425.41592,107.5757 A 36.119947,64.120267 54.445786 0 0 398.82998,87.954609 Z M 305.996,129.24171 a 29.832885,45.247877 79.452393 0 0 0.002,0.0234 l -17.98047,3.05273 a 36.450085,57.281609 80.366178 0 0 -0.0449,-0.002 z" />
    <path
       id="path1-1"
       style="fill:#ffffff;stroke-width:0.720711;fill-opacity:0.69882673"
       d="m 1275.9176,78.788377 a 46.991637,30.698343 8.3362099 0 0 -26.2012,7.316412 37.793889,26.763584 18.458677 0 0 -4.7969,-1.277344 37.793889,26.763584 18.458677 0 0 -39.6093,18.982425 37.793889,26.763584 18.458677 0 0 33.8398,34.85742 37.793889,26.763584 18.458677 0 0 10.8125,1.13671 46.991637,30.698343 8.3362099 0 0 21.2969,6.66211 46.991637,30.698343 8.3362099 0 0 21.9199,-0.41796 37.115323,25.128234 7.3999784 0 0 30.3887,17.20312 37.115323,25.128234 7.3999784 0 0 28.9765,-4.92578 52.677104,30.376819 15.965467 0 0 68.0078,-2.72461 l -46.666,-21.66016 46.6914,21.63086 a 52.677104,30.376819 15.965467 0 0 -25.3535,-46.01562 52.677104,30.376819 15.965467 0 0 -16.7519,-5.7461 37.115323,25.128234 7.3999784 0 0 -31.2168,-18.57617 37.115323,25.128234 7.3999784 0 0 -30.166,5.626956 46.991637,30.698343 8.3362099 0 0 -28.9922,-11.41992 46.991637,30.698343 8.3362099 0 0 -12.1797,-0.652349 z" />
    <path
       id="path1-1-9"
       style="fill:#ffffff;stroke-width:0.867062;fill-opacity:0.69882673"
       d="m 1584.2375,126.35193 a 45.97718,31.842104 36.163807 0 0 -26.2695,13.84765 45.97718,31.842104 36.163807 0 0 25.5215,52.56641 45.97718,31.842104 36.163807 0 0 6.5527,3.41993 57.281608,36.450085 15.284141 0 0 46.3868,43.91796 57.281608,36.450085 15.284141 0 0 49.7617,-2.95898 45.247877,29.832884 14.370355 0 0 27.6328,15.70898 45.247877,29.832884 14.370355 0 0 45.2031,-6.86914 64.120266,36.119947 22.646254 0 0 4.3906,2.96485 64.120266,36.119947 22.646254 0 0 82.6856,7.60156 l -53.086,-32.89063 53.1231,32.86133 a 64.120266,36.119947 22.646254 0 0 -23.5547,-58.16796 64.120266,36.119947 22.646254 0 0 -47.7715,-15.9004 45.247877,29.832884 14.370355 0 0 -31.5137,-20.41601 45.247877,29.832884 14.370355 0 0 -34.246,0.59375 57.281608,36.450085 15.284141 0 0 -38.3282,-23.50586 57.281608,36.450085 15.284141 0 0 -49.7011,2.95117 45.97718,31.842104 36.163807 0 0 -10.0411,-7.41211 45.97718,31.842104 36.163807 0 0 -26.7461,-8.3125 z m 92.1231,52.08594 14.6406,3.98828 a 45.247877,29.832884 14.370355 0 0 0,0.0254 l -14.6015,-3.99023 a 57.281608,36.450085 15.284141 0 0 -0.035,-0.0234 z m 58.9375,12.34375 3.6875,0.97852 a 64.120266,36.119947 22.646254 0 0 0,0.004 z m -61.3574,21.76367 3.9863,1.08594 a 45.247877,29.832884 14.370355 0 0 0,0.0234 l -4.0567,-1.10743 a 57.281608,36.450085 15.284141 0 0 0.074,-0.002 z m 47.9101,11.57227 19.0293,5.05468 a 64.120266,36.119947 22.646254 0 0 0.018,0.0215 z" />
    <path
       id="path3"
       style="fill:#ffffff;fill-opacity:0.69882673;stroke-width:0.324961"
       d="m 1707.7606,502.88734 a 25.250603,16.585302 16.742198 0 0 -18.9883,10.47849 25.250603,16.585302 16.742198 0 0 19.92,22.99805 25.250603,16.585302 16.742198 0 0 15.58,0.95702 33.594855,20.115889 44.590979 0 0 7.3379,8.85157 33.594855,20.115889 44.590979 0 0 29.7227,12.78712 25.246413,16.588053 39.068832 0 0 2.623,2.22068 25.246413,16.588053 39.068832 0 0 29.6719,1.89649 25.246413,16.588053 39.068832 0 0 -10.3242,-28.88868 25.246413,16.588053 39.068832 0 0 -15.6407,-6.76366 33.594855,20.115889 44.590979 0 0 -8.4003,-10.48048 33.594855,20.115889 44.590979 0 0 -36.0547,-10.37887 25.250603,16.585302 16.742198 0 0 -5.832,-2.22266 25.250603,16.585302 16.742198 0 0 -9.6153,-1.45507 z" />
    <path
       id="path4"
       style="fill:#ffffff;fill-opacity:0.69882673;stroke-width:0.544261"
       d="m 256.97863,503.43293 a 17.18459,30.982128 87.315212 0 0 -4.04687,0.0703 17.18459,30.982128 87.315212 0 0 -29.75196,18.80859 17.18459,30.982128 87.315212 0 0 0.66993,2.92773 17.393392,25.450652 65.84746 0 0 -13.60157,26.36328 17.393392,25.450652 65.84746 0 0 31.36133,3.66211 17.393392,25.450652 65.84746 0 0 3.76953,-2.23437 17.182054,30.986701 89.341588 0 0 16.01172,2.1953 17.182054,30.986701 89.341588 0 0 29.08594,-12.34179 17.295047,30.784257 72.270217 0 0 7.96094,-3.68554 13.106733,22.417181 82.135475 0 0 7.16406,-0.33985 13.106733,22.417181 82.135475 0 0 20.18359,-16.14453 13.106733,22.417181 82.135475 0 0 -17.05469,-10.07617 17.295047,30.784257 72.270217 0 0 -29.06445,-2.47657 17.18459,30.982128 87.315212 0 0 -22.6875,-6.72851 z" />
    <path
       id="path5"
       style="fill:#ffffff;stroke-width:0.758094;fill-opacity:0.69882673"
       d="m 208.10609,304.9283 a 18.042868,25.207898 68.403909 0 0 -12.55274,3.17187 18.042868,25.207898 68.403909 0 0 -11.33398,8.77539 20.967119,30.549618 69.15056 0 0 -20.25781,2.22657 20.967119,30.549618 69.15056 0 0 -36.97266,-4.59766 20.967119,30.549618 69.15056 0 0 -18.7168,19.38281 26.147893,42.283681 84.680562 0 0 -32.109361,19.09766 32.203337,18.130998 1.0177637 0 0 -27.669926,17.35547 32.203337,18.130998 1.0177637 0 0 31.77344,18.75585 32.203337,18.130998 1.0177637 0 0 8.41796,-0.46679 26.147893,42.283681 84.680562 0 0 31.830077,5.02148 26.147893,42.283681 84.680562 0 0 11.31836,-2.21484 24.443598,39.226594 67.430523 0 0 35.70703,-4.08985 24.443598,39.226594 67.430523 0 0 24.80859,-25.97655 13.734545,21.508049 70.118763 0 0 12.20899,-2.7754 13.734545,21.508049 70.118763 0 0 12.80469,-20.71289 13.734545,21.508049 70.118763 0 0 -0.2793,-0.39649 18.042868,25.207898 68.403909 0 0 9.82226,-24.04101 18.042868,25.207898 68.403909 0 0 -18.79882,-8.51562 z" />
    <path
       id="path9"
       style="fill:#ffffff;stroke-width:1.51154;fill-opacity:0.69882673"
       d="m 632.38109,74.074399 a 21.547939,45.828777 74.65965 0 0 -22.88476,3.365226 21.547939,45.828777 74.65965 0 0 -38.1289,32.966805 21.547939,45.828777 74.65965 0 0 41.90233,10.32617 13.74298,27.559851 86.536921 0 0 27.10352,8.35157 13.74298,27.559851 86.536921 0 0 26.62696,-15.40626 13.74298,27.559851 86.536921 0 0 -1.94142,-4.48633 13.474186,18.783638 80.204266 0 0 2.52932,-0.15429 13.474186,18.783638 80.204266 0 0 17.88671,-15.580078 13.474186,18.783638 80.204266 0 0 -19.38477,-11.414063 13.474186,18.783638 80.204266 0 0 -7.26563,1.916017 21.547939,45.828777 74.65965 0 0 -26.44336,-9.884767 z" />
    <path
       id="path11"
       style="fill:#ffffff;stroke-width:0.671526;fill-opacity:0.69882673"
       d="m 1519.3121,323.88759 a 19.180474,24.845688 65.072034 0 0 -9.3399,1.60547 19.180474,24.845688 65.072034 0 0 -18.6211,26.60938 19.180474,24.845688 65.072034 0 0 20.8887,12.26757 45.296584,33.077762 0 0 0 37.0761,28.34766 32.938674,45.487854 71.238448 0 0 51.3516,15.5957 32.938674,45.487854 71.238448 0 0 7.5195,-2.86914 19.316135,24.671192 87.663996 0 0 19.1641,8.32618 19.316135,24.671192 87.663996 0 0 26.0039,-18.6211 19.316135,24.671192 87.663996 0 0 -17.9492,-19.36133 32.938674,45.487854 71.238448 0 0 -0.2324,-12.625 32.938674,45.487854 71.238448 0 0 -39.836,-20.75 45.296584,33.077762 0 0 0 -38.1758,-15.28711 45.296584,33.077762 0 0 0 -21.4355,3.99414 19.180474,24.845688 65.072034 0 0 -16.414,-7.23242 z" />
  </g>
</svg>
