<?xml version="1.0" encoding="UTF-8" standalone="no"?>
<!-- Created with Inkscape (http://www.inkscape.org/) -->

<svg
   width="1920"
   height="1080"
   viewBox="0 0 1920 1080"
   version="1.1"
   id="svg1"
   sodipodi:docname="stars.svg"
   inkscape:version="1.3.2 (091e20ef0f, 2023-11-25, custom)"
   xmlns:inkscape="http://www.inkscape.org/namespaces/inkscape"
   xmlns:sodipodi="http://sodipodi.sourceforge.net/DTD/sodipodi-0.dtd"
   xmlns="http://www.w3.org/2000/svg"
   xmlns:svg="http://www.w3.org/2000/svg">
  <sodipodi:namedview
     id="namedview1"
     pagecolor="#6290d6"
     bordercolor="#000000"
     borderopacity="0.25"
     inkscape:showpageshadow="2"
     inkscape:pageopacity="0.0"
     inkscape:pagecheckerboard="0"
     inkscape:deskcolor="#d1d1d1"
     inkscape:document-units="px"
     inkscape:zoom="3.2674488"
     inkscape:cx="115.83961"
     inkscape:cy="897.94827"
     inkscape:window-width="2560"
     inkscape:window-height="1420"
     inkscape:window-x="0"
     inkscape:window-y="20"
     inkscape:window-maximized="1"
     inkscape:current-layer="layer1" />
  <defs
     id="defs1" />
  <g
     inkscape:label="Layer 1"
     inkscape:groupmode="layer"
     id="layer1">
    <path
       d="m 274.1058,969.82924 a 5.8239818,5.8239818 0 0 1 0.25784,0.45478 5.8239818,5.8239818 0 0 1 -2.5839,7.8205 5.8239818,5.8239818 0 0 1 -0.48744,0.1878 6.9887778,6.9887778 0 0 0 0.22893,0.59406 6.9887778,6.9887778 0 0 0 0.34079,0.53779 5.8239818,5.8239818 0 0 1 0.44139,-0.27931 5.8239818,5.8239818 0 0 1 7.82055,2.58392 5.8239818,5.8239818 0 0 1 0.1878,0.48741 6.9887778,6.9887778 0 0 0 0.59405,-0.22903 6.9887778,6.9887778 0 0 0 0.53775,-0.34082 5.8239818,5.8239818 0 0 1 -0.27931,-0.44141 5.8239818,5.8239818 0 0 1 2.58389,-7.82052 5.8239818,5.8239818 0 0 1 0.47818,-0.21131 6.9887778,6.9887778 0 0 0 -0.21951,-0.57077 6.9887778,6.9887778 0 0 0 -0.31547,-0.55311 5.8239818,5.8239818 0 0 1 -0.46668,0.29483 5.8239818,5.8239818 0 0 1 -7.82053,-2.58391 5.8239818,5.8239818 0 0 1 -0.19946,-0.51473 6.9887778,6.9887778 0 0 0 -0.58277,0.25644 6.9887778,6.9887778 0 0 0 -0.51655,0.32733 z"
       style="fill:#ffffff;stroke-width:0.640443"
       id="use11" />
    <path
       d="m 193.72571,911.64573 a 6.4249721,6.4249721 0 0 1 0.34982,0.45854 6.4249721,6.4249721 0 0 1 -1.65496,8.93424 6.4249721,6.4249721 0 0 1 -0.5047,0.27815 7.7099658,7.7099658 0 0 0 0.33905,0.61508 7.7099658,7.7099658 0 0 0 0.45289,0.53686 6.4249721,6.4249721 0 0 1 0.44068,-0.37129 6.4249721,6.4249721 0 0 1 8.93431,1.65498 6.4249721,6.4249721 0 0 1 0.27814,0.50467 7.7099658,7.7099658 0 0 0 0.61507,-0.33915 7.7099658,7.7099658 0 0 0 0.53679,-0.45293 6.4249721,6.4249721 0 0 1 -0.37128,-0.4407 6.4249721,6.4249721 0 0 1 1.65495,-8.93427 6.4249721,6.4249721 0 0 1 0.49106,-0.30246 7.7099658,7.7099658 0 0 0 -0.32526,-0.59103 7.7099658,7.7099658 0 0 0 -0.42752,-0.55739 6.4249721,6.4249721 0 0 1 -0.466,0.39202 6.4249721,6.4249721 0 0 1 -8.93428,-1.65496 6.4249721,6.4249721 0 0 1 -0.29497,-0.53278 7.7099658,7.7099658 0 0 0 -0.59864,0.36742 7.7099658,7.7099658 0 0 0 -0.51565,0.43501 z"
       style="fill:#ffffff;stroke-width:0.706532"
       id="use74" />
    <path
       d="m 76.312812,842.33084 a 6.4249721,6.4249721 0 0 1 0.34983,0.45854 6.4249721,6.4249721 0 0 1 -1.65497,8.93425 6.4249721,6.4249721 0 0 1 -0.50469,0.27814 7.7099658,7.7099658 0 0 0 0.33904,0.61509 7.7099658,7.7099658 0 0 0 0.4529,0.53685 6.4249721,6.4249721 0 0 1 0.44068,-0.37128 6.4249721,6.4249721 0 0 1 8.93431,1.65498 6.4249721,6.4249721 0 0 1 0.27814,0.50466 7.7099658,7.7099658 0 0 0 0.61506,-0.33915 7.7099658,7.7099658 0 0 0 0.53679,-0.45293 6.4249721,6.4249721 0 0 1 -0.37128,-0.44069 6.4249721,6.4249721 0 0 1 1.65495,-8.93428 6.4249721,6.4249721 0 0 1 0.49107,-0.30245 7.7099658,7.7099658 0 0 0 -0.32527,-0.59104 7.7099658,7.7099658 0 0 0 -0.42751,-0.55739 6.4249721,6.4249721 0 0 1 -0.46601,0.39202 6.4249721,6.4249721 0 0 1 -8.93427,-1.65496 6.4249721,6.4249721 0 0 1 -0.29498,-0.53277 7.7099658,7.7099658 0 0 0 -0.59863,0.36742 7.7099658,7.7099658 0 0 0 -0.51566,0.435 z"
       style="fill:#ffffff;fill-opacity:0.7;stroke-width:0.706532"
       id="use74-0" />
    <path
       d="m 1769.7262,732.11637 a 9.3362407,9.3362407 0 0 1 0.3511,0.761 9.3362407,9.3362407 0 0 1 -5.1739,12.1474 9.3362407,9.3362407 0 0 1 -0.8038,0.23481 11.203488,11.203488 0 0 0 0.2862,0.97962 11.203488,11.203488 0 0 0 0.4725,0.90468 9.3362407,9.3362407 0 0 1 0.7425,-0.38714 9.3362407,9.3362407 0 0 1 12.1475,5.17395 9.3362407,9.3362407 0 0 1 0.2348,0.80376 11.203488,11.203488 0 0 0 0.9796,-0.28641 11.203488,11.203488 0 0 0 0.9046,-0.47252 9.3362407,9.3362407 0 0 1 -0.3871,-0.74249 9.3362407,9.3362407 0 0 1 5.1739,-12.14746 9.3362407,9.3362407 0 0 1 0.7921,-0.27358 11.203488,11.203488 0 0 0 -0.2743,-0.94116 11.203488,11.203488 0 0 0 -0.4299,-0.92578 9.3362407,9.3362407 0 0 1 -0.785,0.40854 9.3362407,9.3362407 0 0 1 -12.1474,-5.17392 9.3362407,9.3362407 0 0 1 -0.2498,-0.84894 11.203488,11.203488 0 0 0 -0.9653,0.33169 11.203488,11.203488 0 0 0 -0.8689,0.4538 z"
       style="fill:#ffffff;fill-opacity:0.7;stroke-width:1.02667"
       id="use77" />
    <path
       d="m 1420.8769,997.6321 a 6.2207004,6.2207004 0 0 1 0.4229,0.36472 6.2207004,6.2207004 0 0 1 0.2129,8.79478 6.2207004,6.2207004 0 0 1 -0.4228,0.3641 7.46484,7.46484 0 0 0 0.4438,0.5152 7.46484,7.46484 0 0 0 0.5362,0.4184 6.2207004,6.2207004 0 0 1 0.3435,-0.4396 6.2207004,6.2207004 0 0 1 8.7948,-0.2129 6.2207004,6.2207004 0 0 1 0.3641,0.4227 7.46484,7.46484 0 0 0 0.5152,-0.444 7.46484,7.46484 0 0 0 0.4183,-0.5361 6.2207004,6.2207004 0 0 1 -0.4396,-0.3435 6.2207004,6.2207004 0 0 1 -0.2129,-8.79483 6.2207004,6.2207004 0 0 1 0.4049,-0.38445 7.46484,7.46484 0 0 0 -0.426,-0.49515 7.46484,7.46484 0 0 0 -0.5161,-0.44288 6.2207004,6.2207004 0 0 1 -0.3634,0.46431 6.2207004,6.2207004 0 0 1 -8.7948,0.21291 6.2207004,6.2207004 0 0 1 -0.3857,-0.44599 7.46484,7.46484 0 0 0 -0.4939,0.46745 7.46484,7.46484 0 0 0 -0.4018,0.51494 z"
       style="fill:#ffffff;stroke-width:0.684069"
       id="use78" />
    <path
       d="m 1888.7514,826.53924 a 7.4210047,7.4210047 0 0 1 0.1929,0.63761 7.4210047,7.4210047 0 0 1 -5.4059,8.99544 7.4210047,7.4210047 0 0 1 -0.6586,0.0967 8.9052054,8.9052054 0 0 0 0.1179,0.80261 8.9052054,8.9052054 0 0 0 0.2727,0.76406 7.4210047,7.4210047 0 0 1 0.627,-0.22333 7.4210047,7.4210047 0 0 1 8.9955,5.40592 7.4210047,7.4210047 0 0 1 0.097,0.65852 8.9052054,8.9052054 0 0 0 0.8027,-0.11799 8.9052054,8.9052054 0 0 0 0.764,-0.27275 7.4210047,7.4210047 0 0 1 -0.2233,-0.627 7.4210047,7.4210047 0 0 1 5.4059,-8.99547 7.4210047,7.4210047 0 0 1 0.6536,-0.12848 8.9052054,8.9052054 0 0 0 -0.1127,-0.77102 8.9052054,8.9052054 0 0 0 -0.2369,-0.77599 7.4210047,7.4210047 0 0 1 -0.6628,0.23551 7.4210047,7.4210047 0 0 1 -8.9955,-5.40591 7.4210047,7.4210047 0 0 1 -0.1035,-0.69573 8.9052054,8.9052054 0 0 0 -0.7963,0.15523 8.9052054,8.9052054 0 0 0 -0.7339,0.26191 z"
       style="fill:#ffffff;fill-opacity:0.7;stroke-width:0.816062"
       id="use79" />
    <path
       d="m 1648.253,949.45214 a 7.1167398,7.1167398 0 0 1 0.51,0.38477 7.1167398,7.1167398 0 0 1 0.9001,10.02421 7.1167398,7.1167398 0 0 1 -0.4555,0.44728 8.5400878,8.5400878 0 0 0 0.5453,0.55498 8.5400878,8.5400878 0 0 0 0.6432,0.43757 7.1167398,7.1167398 0 0 1 0.3593,-0.52754 7.1167398,7.1167398 0 0 1 10.0243,-0.90003 7.1167398,7.1167398 0 0 1 0.4473,0.45537 8.5400878,8.5400878 0 0 0 0.5549,-0.54528 8.5400878,8.5400878 0 0 0 0.4375,-0.64331 7.1167398,7.1167398 0 0 1 -0.5276,-0.35933 7.1167398,7.1167398 0 0 1 -0.9,-10.02424 7.1167398,7.1167398 0 0 1 0.4336,-0.46915 8.5400878,8.5400878 0 0 0 -0.5233,-0.53344 8.5400878,8.5400878 0 0 0 -0.6223,-0.46704 7.1167398,7.1167398 0 0 1 -0.3802,0.55721 7.1167398,7.1167398 0 0 1 -10.0242,0.90004 7.1167398,7.1167398 0 0 1 -0.4737,-0.48033 8.5400878,8.5400878 0 0 0 -0.5289,0.57055 8.5400878,8.5400878 0 0 0 -0.4203,0.61787 z"
       style="fill:#ffffff;stroke-width:0.782604"
       id="use83" />
    <path
       d="m 436.41146,983.66933 a 6.3697839,6.3697839 0 0 1 0.4253,0.38217 6.3697839,6.3697839 0 0 1 0.035,9.00812 6.3697839,6.3697839 0 0 1 -0.44035,0.36399 7.6437404,7.6437404 0 0 0 0.44367,0.53666 7.6437404,7.6437404 0 0 0 0.54015,0.43946 6.3697839,6.3697839 0 0 1 0.36083,-0.44292 6.3697839,6.3697839 0 0 1 9.00818,-0.035 6.3697839,6.3697839 0 0 1 0.36398,0.44033 7.6437404,7.6437404 0 0 0 0.53661,-0.44378 7.6437404,7.6437404 0 0 0 0.4394,-0.54017 6.3697839,6.3697839 0 0 1 -0.44292,-0.36083 6.3697839,6.3697839 0 0 1 -0.035,-9.00814 6.3697839,6.3697839 0 0 1 0.42259,-0.38517 7.6437404,7.6437404 0 0 0 -0.42583,-0.51577 7.6437404,7.6437404 0 0 0 -0.5192,-0.46414 6.3697839,6.3697839 0 0 1 -0.38167,0.46779 6.3697839,6.3697839 0 0 1 -9.00815,0.035 6.3697839,6.3697839 0 0 1 -0.38556,-0.46461 7.6437404,7.6437404 0 0 0 -0.5154,0.46829 7.6437404,7.6437404 0 0 0 -0.42211,0.51881 z"
       style="fill:#ffffff;stroke-width:0.700461"
       id="use84" />
    <path
       d="m 1624.6209,1043 a 8.404666,8.404666 0 0 1 0.2703,0.7044 8.404666,8.404666 0 0 1 -5.3671,10.6052 8.404666,8.404666 0 0 1 -0.736,0.1633 10.085599,10.085599 0 0 0 0.1991,0.8968 10.085599,10.085599 0 0 0 0.3708,0.8407 8.404666,8.404666 0 0 1 0.6899,-0.3038 8.404666,8.404666 0 0 1 10.6053,5.3671 8.404666,8.404666 0 0 1 0.1632,0.736 10.085599,10.085599 0 0 0 0.897,-0.1993 10.085599,10.085599 0 0 0 0.8406,-0.3708 8.404666,8.404666 0 0 1 -0.3039,-0.6899 8.404666,8.404666 0 0 1 5.3672,-10.6053 8.404666,8.404666 0 0 1 0.7278,-0.1988 10.085599,10.085599 0 0 0 -0.1907,-0.8616 10.085599,10.085599 0 0 0 -0.3314,-0.8571 8.404666,8.404666 0 0 1 -0.7293,0.3205 8.404666,8.404666 0 0 1 -10.6052,-5.3671 8.404666,8.404666 0 0 1 -0.174,-0.7774 10.085599,10.085599 0 0 0 -0.8868,0.2408 10.085599,10.085599 0 0 0 -0.8074,0.3561 z"
       style="fill:#ffffff;stroke-width:0.924229"
       id="use85" />
    <path
       d="m 1770.4391,928.8204 a 7.5333552,7.5333552 0 0 1 0.1283,0.66395 7.5333552,7.5333552 0 0 1 -6.3964,8.51983 7.5333552,7.5333552 0 0 1 -0.6751,0.0289 9.0400257,9.0400257 0 0 0 0.036,0.82274 9.0400257,9.0400257 0 0 0 0.1958,0.79994 7.5333552,7.5333552 0 0 1 0.6563,-0.16014 7.5333552,7.5333552 0 0 1 8.5199,6.39647 7.5333552,7.5333552 0 0 1 0.029,0.67502 9.0400257,9.0400257 0 0 0 0.8228,-0.0355 9.0400257,9.0400257 0 0 0 0.7998,-0.19577 7.5333552,7.5333552 0 0 1 -0.1601,-0.6564 7.5333552,7.5333552 0 0 1 6.3965,-8.51987 7.5333552,7.5333552 0 0 1 0.6733,-0.0616 9.0400257,9.0400257 0 0 0 -0.034,-0.79031 9.0400257,9.0400257 0 0 0 -0.1584,-0.80827 7.5333552,7.5333552 0 0 1 -0.6938,0.16872 7.5333552,7.5333552 0 0 1 -8.5198,-6.39645 7.5333552,7.5333552 0 0 1 -0.032,-0.71331 9.0400257,9.0400257 0 0 0 -0.8202,0.0737 9.0400257,9.0400257 0 0 0 -0.7683,0.18797 z"
       style="fill:#ffffff;stroke-width:0.828413"
       id="use86" />
    <path
       d="m 1859.0819,993.68714 a 9.257837,9.257837 0 0 1 0.2041,0.8056 9.257837,9.257837 0 0 1 -7.2497,10.90206 9.257837,9.257837 0 0 1 -0.8263,0.083 11.109403,11.109403 0 0 0 0.1012,1.0069 11.109403,11.109403 0 0 0 0.2963,0.9678 9.257837,9.257837 0 0 1 0.7941,-0.2426 9.257837,9.257837 0 0 1 10.9021,7.2498 9.257837,9.257837 0 0 1 0.083,0.8261 11.109403,11.109403 0 0 0 1.0069,-0.1013 11.109403,11.109403 0 0 0 0.9677,-0.2963 9.257837,9.257837 0 0 1 -0.2425,-0.7941 9.257837,9.257837 0 0 1 7.2497,-10.9021 9.257837,9.257837 0 0 1 0.8219,-0.1229 11.109403,11.109403 0 0 0 -0.097,-0.9672 11.109403,11.109403 0 0 0 -0.251,-0.9806 9.257837,9.257837 0 0 1 -0.8394,0.2557 9.257837,9.257837 0 0 1 -10.9021,-7.24973 9.257837,9.257837 0 0 1 -0.089,-0.87294 11.109403,11.109403 0 0 0 -1.0012,0.14805 11.109403,11.109403 0 0 0 -0.9295,0.28456 z"
       style="fill:#ffffff;stroke-width:1.01805"
       id="use87" />
    <path
       d="m 20.469093,988.62018 a 8.4788854,8.4788854 0 0 1 0.278267,0.7084 8.4788854,8.4788854 0 0 1 -5.329651,10.74142 8.4788854,8.4788854 0 0 1 -0.741097,0.1706 10.174662,10.174662 0 0 0 0.208013,0.9032 10.174662,10.174662 0 0 0 0.38078,0.8451 8.4788854,8.4788854 0 0 1 0.69352,-0.312 8.4788854,8.4788854 0 0 1 10.741407,5.3297 8.4788854,8.4788854 0 0 1 0.17061,0.7411 10.174662,10.174662 0 0 0 0.90324,-0.2082 10.174662,10.174662 0 0 0 0.84501,-0.3808 8.4788854,8.4788854 0 0 1 -0.31196,-0.6936 8.4788854,8.4788854 0 0 1 5.32964,-10.74132 8.4788854,8.4788854 0 0 1 0.73259,-0.2064 10.174662,10.174662 0 0 0 -0.19922,-0.8678 10.174662,10.174662 0 0 0 -0.34114,-0.8619 8.4788854,8.4788854 0 0 1 -0.73315,0.3291 8.4788854,8.4788854 0 0 1 -10.741382,-5.3297 8.4788854,8.4788854 0 0 1 -0.181816,-0.7828 10.174662,10.174662 0 0 0 -0.892606,0.25 10.174662,10.174662 0 0 0 -0.8117,0.3657 z"
       style="fill:#ffffff;stroke-width:0.932391"
       id="use88" />
    <path
       d="m 154.6222,1001.4965 a 7.3921356,7.3921356 0 0 1 0.56161,0.3535 7.3921356,7.3921356 0 0 1 1.81228,10.2957 7.3921356,7.3921356 0 0 1 -0.43201,0.5029 8.8705621,8.8705621 0 0 0 0.61301,0.5265 8.8705621,8.8705621 0 0 0 0.70422,0.3963 7.3921356,7.3921356 0 0 1 0.32554,-0.5775 7.3921356,7.3921356 0 0 1 10.29579,-1.8123 7.3921356,7.3921356 0 0 1 0.50291,0.432 8.8705621,8.8705621 0 0 0 0.52643,-0.6131 8.8705621,8.8705621 0 0 0 0.39627,-0.7043 7.3921356,7.3921356 0 0 1 -0.57756,-0.3255 7.3921356,7.3921356 0 0 1 -1.81232,-10.29577 7.3921356,7.3921356 0 0 1 0.40755,-0.52365 8.8705621,8.8705621 0 0 0 -0.58848,-0.50612 8.8705621,8.8705621 0 0 0 -0.68513,-0.42869 7.3921356,7.3921356 0 0 1 -0.34449,0.6101 7.3921356,7.3921356 0 0 1 -10.29575,1.81233 7.3921356,7.3921356 0 0 1 -0.53237,-0.4555 8.8705621,8.8705621 0 0 0 -0.49734,0.6369 8.8705621,8.8705621 0 0 0 -0.3807,0.6764 z"
       style="fill:#ffffff;stroke-width:0.812887"
       id="use89" />
    <path
       d="m 352.23261,1024.8242 a 7.7806777,7.7806777 0 0 1 0.34023,0.61 7.7806777,7.7806777 0 0 1 -3.52474,10.4236 7.7806777,7.7806777 0 0 1 -0.65294,0.2464 9.3368128,9.3368128 0 0 0 0.30031,0.7957 9.3368128,9.3368128 0 0 0 0.45027,0.7217 7.7806777,7.7806777 0 0 1 0.59227,-0.3691 7.7806777,7.7806777 0 0 1 10.42373,3.5248 7.7806777,7.7806777 0 0 1 0.24635,0.6529 9.3368128,9.3368128 0 0 0 0.79575,-0.3005 9.3368128,9.3368128 0 0 0 0.72156,-0.4503 7.7806777,7.7806777 0 0 1 -0.36903,-0.5923 7.7806777,7.7806777 0 0 1 3.52473,-10.4237 7.7806777,7.7806777 0 0 1 0.64079,-0.2778 9.3368128,9.3368128 0 0 0 -0.28794,-0.7645 9.3368128,9.3368128 0 0 0 -0.4163,-0.7419 7.7806777,7.7806777 0 0 1 -0.6262,0.3895 7.7806777,7.7806777 0 0 1 -10.42371,-3.5247 7.7806777,7.7806777 0 0 1 -0.26167,-0.6895 9.3368128,9.3368128 0 0 0 -0.78094,0.3371 9.3368128,9.3368128 0 0 0 -0.69312,0.4325 z"
       style="fill:#ffffff;stroke-width:0.855612"
       id="use90" />
    <circle
       style="fill:#ffffff;fill-opacity:1;stroke-width:0.554061"
       id="use91"
       cx="274.12573"
       cy="1055.1669"
       r="5.6074591" />
    <circle
       style="fill:#ffffff;fill-opacity:1;stroke-width:0.670419"
       id="use92"
       cx="507.62689"
       cy="1020.4966"
       r="6.7850723" />
    <circle
       style="fill:#ffffff;fill-opacity:0.7;stroke-width:0.775176"
       id="use93"
       cx="1732.939"
       cy="841.8606"
       r="7.845284" />
    <circle
       style="fill:#ffffff;fill-opacity:0.7;stroke-width:0.670419"
       id="use103"
       cx="71.459084"
       cy="766.57098"
       r="6.7850723" />
    <circle
       style="fill:#ffffff;fill-opacity:1;stroke-width:0.670419"
       id="use103-9"
       cx="95.584412"
       cy="929.20691"
       r="6.7850723" />
    <circle
       style="fill:#ffffff;fill-opacity:1;stroke-width:0.494064"
       id="use105"
       cx="1522.2545"
       cy="1010.705"
       r="5.0002518" />
    <path
       style="fill:#ffffff;fill-opacity:1;stroke:#ffffff;stroke-width:2.79754;stroke-dasharray:none;stroke-opacity:1"
       d="m 95.429012,929.17587 67.424248,76.32203"
       id="path106"
       sodipodi:nodetypes="cc" />
    <path
       style="fill:#ffffff;fill-opacity:1;stroke:#ffffff;stroke-width:2.79754;stroke-dasharray:none;stroke-opacity:1"
       d="M 198.49805,917.76361 95.042572,928.966"
       id="path107" />
    <path
       style="fill:#ffffff;fill-opacity:1;stroke:#ffffff;stroke-width:2.79754;stroke-dasharray:none;stroke-opacity:1"
       d="m 162.68737,1006.3461 35.9539,-88.56461"
       id="path108" />
    <path
       style="fill:#ffffff;fill-opacity:1;stroke:#ffffff;stroke-width:2.79754;stroke-dasharray:none;stroke-opacity:1"
       d="m 277.73319,976.04211 -79.1598,-58.68468"
       id="path109" />
    <path
       style="fill:#ffffff;fill-opacity:1;stroke:#ffffff;stroke-width:2.79754;stroke-dasharray:none;stroke-opacity:1"
       d="m 1522.0677,1010.8104 106.7037,41.4474"
       id="path110" />
    <path
       style="fill:#ffffff;fill-opacity:1;stroke:#ffffff;stroke-width:2.79754;stroke-dasharray:none;stroke-opacity:1"
       d="m 1654.8966,954.22152 -26.7143,98.35878"
       id="path111" />
    <path
       style="fill:#ffffff;fill-opacity:1;stroke:#ffffff;stroke-width:2.79754;stroke-dasharray:none;stroke-opacity:1"
       d="M 1773.0267,937.55928 1654.989,954.04017"
       id="path112" />
  </g>
</svg>
