<svg xmlns="http://www.w3.org/2000/svg" xml:space="preserve" width="2343" height="2225" overflow="hidden"><defs><clipPath id="a"><path d="M996 116h2343v2225H996z"/></clipPath></defs><g clip-path="url(#a)" transform="translate(-996 -116)"><path fill="#E71F2A" fill-rule="evenodd" d="M2673.52 1954.44c-74.05 31.25-130.78 78.86-175.01 39.85l-84.77 94.52c49.2 20.94 94.54 21.67 163.94-23.81Zm250.23-490.24c-109.54 75.02-151.74 136.57-299.76 155.77l-109.37 192.57c127.04 3.2 200.21-61.93 302.24-125.14Zm-34.86-295.27c-96.22 79.53-113.56 76.27-190.54 99.97l-30.21 90.68c157.28-5.8 201.04-103.04 220.75-190.65ZM1741 713.24l65.06 83.698-355.52 99.973Zm1317.52-395.243L1850.21 606.292v-37.2l220.75-202.271L1260 987.584l664.57-155.772-106.89-167.396 534.44-90.674-346.22 325.494-18.59-27.9-13.94-27.899-85.98 27.899 72.03 55.799-446.14 299.915 474.03 702.14-55.77-439.42 360.17-141.82 109.21-83.7-220.75 899.76 471.71-1285.699-385.73 439.419-453.12 53.47v95.32l-204.48-220.87 343.9-269.691 79.01 4.65 2.32-51.149ZM3314.04 116l5.55 110.973-22.18 13.871-2.77 108.198h27.72l2.78 77.681-24.96 2.774v49.938L3278 529.373l-2.77 74.906 24.95 30.518 2.77 91.552h24.96l2.77 124.844-30.5-5.548 5.55 94.326 22.18 5.549-2.77 133.17-22.19-2.78v135.94h22.19l2.77 97.11-30.5 30.51-11.09 77.68-2.78 49.94h22.19l2.77 133.17 22.18-2.78 2.77 105.43h-19.41v94.32h19.41l2.78 127.62-22.19 11.1 2.78 102.65 22.18 2.77v88.78l-30.5 19.42 5.54 36.07-16.63 24.97 13.86 119.29-116.45-2.77-11.1-24.97-354.91 5.55-16.64-33.29-47.14-2.78-13.86 24.97h-33.27l5.54 27.74-85.95 2.78-8.32-27.74h-85.96l-30.5 33.29-177.46 2.77 2.78-33.29-349.37 2.77-13.87-19.42-102.59 2.78V2341l-77.64-2.77-8.32-24.97-85.95-2.78 2.77 27.75h-205.19l-2.77-16.65-360.46 2.77-5.55-27.74-69.32-2.77-2.77-180.33-19.41-11.1-2.77-108.2 30.5-2.77-2.77-110.98 24.95-19.42 5.55-33.29-49.91-83.23-47.14-24.97V1616.9l30.5-2.77 38.82-8.32 24.95-30.52 11.1-33.29-2.78-30.52-16.63-38.84-30.5-30.52 2.77-196.97-16.64-13.88v-91.55l13.87-11.1v-86c27.3-17.67 36-58.855 5.54-97.1l-47.14-86.004L996 790.159l5.55-41.615c79.46 5.848 143.26-83.332 41.59-147.039l-5.55-208.073-13.86-13.872v-66.584l16.63-38.84V157.615l213.51-11.097 30.5-19.421 36.05-8.323 58.22 5.549 41.6 19.42 47.13 30.518h77.64l5.55-22.195 22.18-16.646 49.91-2.774 63.77 13.872-2.77 30.517h74.86l8.32-30.517 328.66 3.589 18.1-27.579 110.75.816c79.1 51.213 162.12 54.424 257.87 3.753 48.34 38.857 89.82 43.426 130.32 16.646l331.26.165 4.25-25.134h124.77c96.08 58.835 160.82 38.316 241.23-2.774Z"/></g></svg>